Coordinates
version=1
nRows=20
nColumns=26
inDegrees=yes

Units are S.I. units (second, meters, Newtons, ...)
If the header above contains a line with 'inDegrees', this indicates whether rotational values are in degrees (yes) or radians (no).

endheader
time	pelvis_tilt	pelvis_list	pelvis_rotation	pelvis_tx	pelvis_ty	pelvis_tz	hip_flexion_l	hip_adduction_l	hip_rotation_l	hip_flexion_r	hip_adduction_r	hip_rotation_r	knee_angle_l_beta	knee_angle_r_beta	knee_angle_l	knee_angle_r	ankle_angle_l	ankle_angle_r	subtalar_angle_l	subtalar_angle_r	mtp_angle_l	mtp_angle_r	lumbar_ext	lumbar_bend	lumbar_rota
      0.95000000	      1.50173076	     -5.16801259	     -3.74361714	     -0.01886416	      0.83036816	     -0.20252798	     31.54521673	     -6.34926342	    -10.24005183	    -12.57565975	      9.44740773	     -0.08517584	      0.38700714	      0.33028047	    -22.17387584	    -18.92367724	     -8.49041598	      4.79963304	      0.00000000	      0.00000000	      0.00000000	      0.00000000	    -14.30473637	      4.10320035	      9.18832399
      0.96000000	      1.86057239	     -4.71566399	     -3.48622916	     -0.00651711	      0.82969374	     -0.20394723	     31.30728428	     -5.80017829	    -10.45153587	    -13.07999805	      8.78212084	     -0.46689333	      0.41563717	      0.35494515	    -23.81425571	    -20.33685924	     -9.19147320	      3.94943077	      0.00000000	      0.00000000	      0.00000000	      0.00000000	    -14.62782699	      3.57638418	      9.01860016
      0.97000000	      2.02501663	     -4.29630710	     -3.34921912	      0.00573011	      0.82905223	     -0.20531601	     31.23720617	     -5.29717309	    -10.42852774	    -13.12949109	      8.16097673	     -0.67131599	      0.44511830	      0.38724085	    -25.50339986	    -22.18726611	     -9.61216581	      3.06648426	      0.00000000	      0.00000000	      0.00000000	      0.00000000	    -14.75372294	      3.10363420	      8.98204454
      0.98000000	      2.30530581	     -3.81513369	     -3.15197422	      0.01806467	      0.82896766	     -0.20680718	     30.84705347	     -4.62109671	    -10.18402180	    -13.15205043	      7.44923709	     -1.07207828	      0.46915133	      0.42287082	    -26.88039103	    -24.22871326	    -10.06198192	      1.67861639	      0.00000000	      0.00000000	      0.00000000	      0.00000000	    -15.01204189	      2.56519491	      8.87153701
      0.99000000	      2.53586906	     -3.26328580	     -2.98707065	      0.03034858	      0.82912851	     -0.20845357	     30.38300266	     -3.83076994	     -9.89953052	    -12.87336064	      6.61828341	     -1.57535609	      0.48990219	      0.46505232	    -28.06932774	    -26.64553495	    -10.32354696	      0.04204033	      0.00000000	      0.00000000	      0.00000000	      0.00000000	    -15.22493724	      1.97798284	      8.75853201
      1.00000000	      2.42329516	     -2.57746250	     -2.89595301	      0.04224968	      0.82913113	     -0.21017241	     30.12730279	     -2.82536660	     -9.42505036	    -11.78741038	      5.58772843	     -2.21357399	      0.50432424	      0.51918008	    -28.89565019	    -29.74682732	    -10.54940705	     -1.55784868	      0.00000000	      0.00000000	      0.00000000	      0.00000000	    -15.07827804	      1.26816008	      8.68928866
      1.01000000	      2.50419120	     -1.86959513	     -2.77098959	      0.05429461	      0.82969483	     -0.21204704	     29.56623658	     -1.78020462	     -9.08105254	    -10.84476784	      4.46846427	     -2.93963447	      0.51671779	      0.57343055	    -29.60574830	    -32.85515014	    -10.49369876	     -3.62662688	      0.00000000	      0.00000000	      0.00000000	      0.00000000	    -15.14406775	      0.55422226	      8.55354935
      1.02000000	      2.59409071	     -1.12093714	     -2.63028551	      0.06625393	      0.83047507	     -0.21405857	     28.91240860	     -0.68061935	     -8.85995693	     -9.72720352	      3.24378851	     -3.73280847	      0.52645986	      0.63135079	    -30.16392832	    -36.17373537	    -10.20712863	     -5.89674748	      0.00000000	      0.00000000	      0.00000000	      0.00000000	    -15.22991503	     -0.17540759	      8.38205894
      1.03000000	      2.60027051	     -0.36850563	     -2.51473634	      0.07795139	      0.83134105	     -0.21610660	     28.24893209	      0.44882664	     -8.61895996	     -8.31718317	      1.96588194	     -4.44727070	      0.53227780	      0.69302407	    -30.49727147	    -39.70735428	     -9.84744771	     -7.98800510	      0.00000000	      0.00000000	      0.00000000	      0.00000000	    -15.24803635	     -0.88482578	      8.16763965
      1.04000000	      2.69537807	      0.38666519	     -2.41370102	      0.08967159	      0.83241522	     -0.21822653	     27.47083498	      1.53998955	     -8.60713954	     -6.91008091	      0.59576580	     -5.21229024	      0.53849419	      0.75463485	    -30.85344431	    -43.23739169	     -9.14700052	    -10.24830462	      0.00000000	      0.00000000	      0.00000000	      0.00000000	    -15.35922734	     -1.57479620	      7.97398086
      1.05000000	      2.44208437	      1.21754147	     -2.39066041	      0.10087446	      0.83317113	     -0.22023679	     26.89252728	      2.74906507	     -8.44072047	     -4.82414579	     -0.86558762	     -5.72732783	      0.53659240	      0.82172731	    -30.74447982	    -47.08150654	     -8.65600868	    -11.84887865	      0.00000000	      0.00000000	      0.00000000	      0.00000000	    -15.10707148	     -2.34729056	      7.79165850
      1.06000000	      2.14675785	      1.92909923	     -2.32747697	      0.11177267	      0.83390251	     -0.22229789	     26.38323445	      3.83525494	     -8.29285728	     -2.59225673	     -2.14698122	     -6.02984863	      0.53488053	      0.88789184	    -30.64639715	    -50.87245500	     -8.21850453	    -13.01592358	      0.00000000	      0.00000000	      0.00000000	      0.00000000	    -14.83898503	     -2.94363818	      7.55537175
      1.07000000	      2.17028682	      2.51025392	     -2.30161152	      0.12285736	      0.83515460	     -0.22424355	     25.52413108	      4.70751467	     -8.38074797	     -0.77715777	     -3.31052560	     -6.26774406	      0.53502614	      0.94711492	    -30.65473988	    -54.26568735	     -7.26385345	    -14.27106545	      0.00000000	      0.00000000	      0.00000000	      0.00000000	    -14.90919002	     -3.39751859	      7.35457101
      1.08000000	      1.79653002	      3.08101368	     -2.28440221	      0.13332290	      0.83591164	     -0.22602731	     25.03100577	      5.59408575	     -8.28336996	      1.70605735	     -4.34088346	     -6.20350215	      0.53020254	      1.00796993	    -30.37836780	    -57.75242298	     -6.81587716	    -14.74227833	      0.00000000	      0.00000000	      0.00000000	      0.00000000	    -14.57610019	     -3.84588130	      7.16126101
      1.09000000	      1.69897410	      3.51050867	     -2.29553422	      0.14388057	      0.83708920	     -0.22762391	     24.24855397	      6.27431240	     -8.32967713	      3.82734189	     -5.17872226	     -6.07161633	      0.52732461	      1.06144967	    -30.21347467	    -60.81658650	     -5.87180400	    -15.20383240	      0.00000000	      0.00000000	      0.00000000	      0.00000000	    -14.53928917	     -4.14972111	      6.96228117
      1.10000000	      1.50681075	      3.83151283	     -2.31089856	      0.15419442	      0.83820538	     -0.22918735	     23.54868280	      6.84809121	     -8.27793656	      6.11683469	     -5.81173295	     -5.81079930	      0.52316806	      1.11065010	    -29.97532206	    -63.63556304	     -5.16277453	    -15.25938995	      0.00000000	      0.00000000	      0.00000000	      0.00000000	    -14.40600212	     -4.31249190	      6.80787179
      1.11000000	      1.34733798	      4.04951144	     -2.31234099	      0.16433495	      0.83937646	     -0.23059369	     22.82162189	      7.31220835	     -8.15126343	      8.38253460	     -6.22796258	     -5.46541834	      0.51926074	      1.15442278	    -29.75144868	    -66.14355302	     -4.45343638	    -15.13196703	      0.00000000	      0.00000000	      0.00000000	      0.00000000	    -14.32373681	     -4.36588351	      6.61737281
      1.12000000	      1.12006317	      4.19882526	     -2.33672982	      0.17441834	      0.84045974	     -0.23178706	     22.14766608	      7.67755461	     -8.00246131	     10.73823008	     -6.49003699	     -5.07722796	      0.51465621	      1.19264505	    -29.48762855	    -68.33352780	     -3.79859925	    -14.84199652	      0.00000000	      0.00000000	      0.00000000	      0.00000000	    -14.13634293	     -4.36542926	      6.39641780
      1.13000000	      0.94693469	      4.26563336	     -2.28854799	      0.18438342	      0.84163935	     -0.23294746	     21.42778185	      7.96644155	     -7.79920697	     12.98425895	     -6.55384219	     -4.68237080	      0.51046159	      1.22420779	    -29.24729460	    -70.14193963	     -3.17834466	    -14.48947453	      0.00000000	      0.00000000	      0.00000000	      0.00000000	    -14.02401299	     -4.27159076	      6.17811207
      1.14000000	      0.78409018	      4.28278626	     -2.23204439	      0.19440110	      0.84279618	     -0.23391677	     20.67957270	      8.18032497	     -7.57746329	     15.17359358	     -6.49644242	     -4.29990783	      0.50604214	      1.24939024	    -28.99407890	    -71.58478750	     -2.58324499	    -14.09024857	      0.00000000	      0.00000000	      0.00000000	      0.00000000	    -13.89684645	     -4.14791716	      5.87561432
